<?xml version="1.0" encoding="UTF-8" standalone="no"?>
<!DOCTYPE svg PUBLIC "-//W3C//DTD SVG 1.1//EN"
 "http://www.w3.org/Graphics/SVG/1.1/DTD/svg11.dtd">
<!-- Generated by graphviz version 2.30.1 (20180420.1509)
 -->
<!-- Title: CMakeFiles/3.11.2 Pages: 1 -->
<svg width="303pt" height="111pt"
 viewBox="0.00 0.00 303.00 111.00" xmlns="http://www.w3.org/2000/svg" xmlns:xlink="http://www.w3.org/1999/xlink">
<g id="graph0" class="graph" transform="scale(1 1) rotate(0) translate(4 107)">
<title>CMakeFiles/3.11.2</title>
<polygon fill="white" stroke="white" points="-4,5 -4,-107 300,-107 300,5 -4,5"/>
<g id="clust1" class="cluster"><title>clusterdir_262b15ba208f98b5f128b3951625a16a</title>
<g id="a_clust1"><a xlink:href="dir_262b15ba208f98b5f128b3951625a16a.html" target="_top" xlink:title="CMakeFiles">
<polygon fill="#ddddee" stroke="black" points="8,-8 8,-95 287,-95 287,-8 8,-8"/>
<text text-anchor="middle" x="147.5" y="-83" font-family="Helvetica,sans-Serif" font-size="10.00">CMakeFiles</text>
</a>
</g>
</g>
<g id="clust2" class="cluster"><title>clusterdir_e1c2f3db16c8e9d3d08d83bafc33f184</title>
<g id="a_clust2"><a xlink:href="dir_e1c2f3db16c8e9d3d08d83bafc33f184.html" target="_top">
<polygon fill="#eeeeff" stroke="black" points="16,-16 16,-68 279,-68 279,-16 16,-16"/>
</a>
</g>
</g>
<!-- dir_e1c2f3db16c8e9d3d08d83bafc33f184 -->
<g id="node1" class="node"><title>dir_e1c2f3db16c8e9d3d08d83bafc33f184</title>
<text text-anchor="middle" x="244" y="-39.5" font-family="Helvetica,sans-Serif" font-size="10.00">3.11.2</text>
</g>
<!-- dir_a9bdf77aac47c0ba4cde7bab194d4927 -->
<g id="node2" class="node"><title>dir_a9bdf77aac47c0ba4cde7bab194d4927</title>
<g id="a_node2"><a xlink:href="dir_a9bdf77aac47c0ba4cde7bab194d4927.html" target="_top" xlink:title="CompilerIdC">
<polygon fill="white" stroke="black" points="198.25,-60 127.75,-60 127.75,-24 198.25,-24 198.25,-60"/>
<text text-anchor="middle" x="163" y="-39.5" font-family="Helvetica,sans-Serif" font-size="10.00">CompilerIdC</text>
</a>
</g>
</g>
<!-- dir_dbae19ae80042d894f5dca7766f3bc4a -->
<g id="node3" class="node"><title>dir_dbae19ae80042d894f5dca7766f3bc4a</title>
<g id="a_node3"><a xlink:href="dir_dbae19ae80042d894f5dca7766f3bc4a.html" target="_top" xlink:title="CompilerIdCXX">
<polygon fill="white" stroke="black" points="109.25,-60 24.75,-60 24.75,-24 109.25,-24 109.25,-60"/>
<text text-anchor="middle" x="67" y="-39.5" font-family="Helvetica,sans-Serif" font-size="10.00">CompilerIdCXX</text>
</a>
</g>
</g>
</g>
</svg>
