<?xml version="1.0" encoding="UTF-8" standalone="no"?>
<!DOCTYPE svg PUBLIC "-//W3C//DTD SVG 1.1//EN"
 "http://www.w3.org/Graphics/SVG/1.1/DTD/svg11.dtd">
<!-- Generated by graphviz version 2.30.1 (20180420.1509)
 -->
<!-- Title: src/include/matrix.hpp Pages: 1 -->
<svg width="190pt" height="84pt"
 viewBox="0.00 0.00 190.00 84.00" xmlns="http://www.w3.org/2000/svg" xmlns:xlink="http://www.w3.org/1999/xlink">
<g id="graph0" class="graph" transform="scale(1 1) rotate(0) translate(4 80)">
<title>src/include/matrix.hpp</title>
<polygon fill="white" stroke="white" points="-4,5 -4,-80 187,-80 187,5 -4,5"/>
<!-- Node1 -->
<g id="node1" class="node"><title>Node1</title>
<polygon fill="#bfbfbf" stroke="black" points="25.5,-56.5 25.5,-75.5 138.5,-75.5 138.5,-56.5 25.5,-56.5"/>
<text text-anchor="middle" x="82" y="-63.5" font-family="Helvetica,sans-Serif" font-size="10.00">src/include/matrix.hpp</text>
</g>
<!-- Node2 -->
<g id="node2" class="node"><title>Node2</title>
<polygon fill="white" stroke="#bfbfbf" points="0,-0.5 0,-19.5 38,-19.5 38,-0.5 0,-0.5"/>
<text text-anchor="middle" x="19" y="-7.5" font-family="Helvetica,sans-Serif" font-size="10.00">array</text>
</g>
<!-- Node1&#45;&gt;Node2 -->
<g id="edge1" class="edge"><title>Node1&#45;&gt;Node2</title>
<path fill="none" stroke="midnightblue" d="M71.878,-56.324C62.4736,-48.2631 48.2559,-36.0765 36.931,-26.3695"/>
<polygon fill="midnightblue" stroke="midnightblue" points="39.1766,-23.6844 29.3062,-19.8339 34.621,-28.9993 39.1766,-23.6844"/>
</g>
<!-- Node3 -->
<g id="node3" class="node"><title>Node3</title>
<polygon fill="white" stroke="#bfbfbf" points="56.5,-0.5 56.5,-19.5 107.5,-19.5 107.5,-0.5 56.5,-0.5"/>
<text text-anchor="middle" x="82" y="-7.5" font-family="Helvetica,sans-Serif" font-size="10.00">numeric</text>
</g>
<!-- Node1&#45;&gt;Node3 -->
<g id="edge2" class="edge"><title>Node1&#45;&gt;Node3</title>
<path fill="none" stroke="midnightblue" d="M82,-56.083C82,-49.0059 82,-38.8611 82,-29.9865"/>
<polygon fill="midnightblue" stroke="midnightblue" points="85.5001,-29.751 82,-19.7511 78.5001,-29.7511 85.5001,-29.751"/>
</g>
<!-- Node4 -->
<g id="node4" class="node"><title>Node4</title>
<polygon fill="white" stroke="#bfbfbf" points="126,-0.5 126,-19.5 182,-19.5 182,-0.5 126,-0.5"/>
<text text-anchor="middle" x="154" y="-7.5" font-family="Helvetica,sans-Serif" font-size="10.00">algorithm</text>
</g>
<!-- Node1&#45;&gt;Node4 -->
<g id="edge3" class="edge"><title>Node1&#45;&gt;Node4</title>
<path fill="none" stroke="midnightblue" d="M93.568,-56.324C104.42,-48.1849 120.881,-35.8395 133.883,-26.0874"/>
<polygon fill="midnightblue" stroke="midnightblue" points="136.321,-28.6339 142.221,-19.8339 132.121,-23.0339 136.321,-28.6339"/>
</g>
</g>
</svg>
